<svg height="512" viewBox="0 0 64 64" width="512" xmlns="http://www.w3.org/2000/svg" xmlns:xlink="http://www.w3.org/1999/xlink"><linearGradient id="a" gradientUnits="userSpaceOnUse" x1="32.888" x2="31.199" y1="66.629" y2=".744"><stop offset="0" stop-color="#006df0"/><stop offset="1" stop-color="#00e7f0"/></linearGradient><linearGradient id="b" x1="9.045" x2="7.355" xlink:href="#a" y1="67.241" y2="1.356"/><linearGradient id="c" x1="14.041" x2="12.352" xlink:href="#a" y1="67.113" y2="1.228"/><linearGradient id="d" x1="19.038" x2="17.349" xlink:href="#a" y1="66.984" y2="1.099"/><linearGradient id="e" x1="32.785" x2="31.096" xlink:href="#a" y1="66.632" y2=".747"/><linearGradient id="f" x1="49.697" x2="48.008" xlink:href="#a" y1="66.198" y2=".313"/><linearGradient id="g" x1="17.718" x2="16.029" xlink:href="#a" y1="67.018" y2="1.133"/><g data-name="Error 404"><path d="M59 2H5a3 3 0 00-3 3v54a3 3 0 003 3h54a3 3 0 003-3V5a3 3 0 00-3-3zM5 4h54a1 1 0 011 1v5H4V5a1 1 0 011-1zm54 56H5a1 1 0 01-1-1V12h56v47a1 1 0 01-1 1z" fill="url(#a)"/><path d="M7 8h1a1 1 0 000-2H7a1 1 0 000 2z" fill="url(#b)"/><path d="M12 8h1a1 1 0 000-2h-1a1 1 0 000 2z" fill="url(#c)"/><path d="M17 8h1a1 1 0 000-2h-1a1 1 0 000 2z" fill="url(#d)"/><path d="M32 25a6.006 6.006 0 00-6 6v10a6 6 0 0012 0V31a6.006 6.006 0 00-6-6zm4 16a4 4 0 01-8 0V31a4 4 0 018 0z" fill="url(#e)"/><path d="M55 39h-3V26a1 1 0 00-2 0v13h-5a1 1 0 01-1-1V26a1 1 0 00-2 0v12a3 3 0 003 3h5v5a1 1 0 002 0v-5h3a1 1 0 000-2z" fill="url(#f)"/><path d="M23 39h-3V26a1 1 0 00-2 0v13h-5a1 1 0 01-1-1V26a1 1 0 00-2 0v12a3 3 0 003 3h5v5a1 1 0 002 0v-5h3a1 1 0 000-2z" fill="url(#g)"/></g></svg>